<svg width="92" height="71" viewBox="0 0 92 71" fill="none" xmlns="http://www.w3.org/2000/svg">
<path fill-rule="evenodd" clip-rule="evenodd" d="M60.3465 0.415194H43.3355C34.9666 0.415194 28.1833 7.05719 28.1833 15.2494V15.3988L30.9107 15.4618C31.4702 12.0856 33.2405 9.09868 35.7894 6.9189C35.7951 6.9076 35.7951 6.9076 35.8006 6.9076C35.8583 6.8568 35.9227 6.80033 35.9861 6.74949C36.0143 6.72062 36.0493 6.69302 36.0788 6.67076C36.1069 6.64756 36.1352 6.62558 36.1646 6.60894C38.8065 4.47963 42.2202 3.20387 45.9399 3.20387C47.8198 3.20387 49.6206 3.53135 51.28 4.12328L50.4331 4.74529L50.4853 4.75626L31.1008 18.9289C30.9966 19.0074 30.8995 19.0861 30.7999 19.1658C29.1452 20.5366 28.1833 22.5586 28.1833 24.6932V30.525C28.1833 30.525 29.1519 27.9389 31.0655 25.5452C31.442 25.0759 31.8501 24.6136 32.3001 24.1854C32.6413 23.851 32.9973 23.5411 33.3783 23.2534C35.2425 21.8581 48.5228 11.9713 55.7267 6.61326C58.4836 4.55831 60.3465 3.16962 60.3465 3.16962V0.415194ZM63.2594 5.96495V5.97029C62.6535 7.25734 61.4247 9.52153 59.5801 11.3011C59.2398 11.6329 58.8815 11.9438 58.5019 12.2315C56.639 13.6258 43.3561 23.5126 36.1521 28.8707C33.3952 30.9213 31.5323 32.309 31.5323 32.309V35.071H48.5442C56.9135 35.071 63.698 28.4293 63.698 20.2346V20.0865L60.9636 20.0398C59.8107 26.9795 53.5248 32.2814 45.9399 32.2814C44.0952 32.2814 42.324 31.9658 40.686 31.3893L52.0009 23.0942L52.1457 22.9879L60.7793 16.5576C60.8822 16.4779 60.9818 16.3992 61.0789 16.3208C62.0475 15.5184 62.78 14.4904 63.2186 13.3504V13.3438C63.5294 12.5361 63.698 11.6728 63.698 10.7929V4.95899C63.698 4.95899 63.5532 5.34955 63.2594 5.96495ZM85.6204 44.7275L83.3076 52.0831L80.4206 44.7275H75.9114C76.1988 44.9587 76.3683 45.1412 76.5026 45.5042C76.6711 45.8684 76.722 46.1162 76.6711 46.529L75.5916 55.6042C75.5237 56.0669 75.4391 56.3313 75.169 56.7276C75.0004 56.9434 74.8819 57.0751 74.6467 57.2411H78.6811C78.4446 57.1413 78.3091 57.0585 78.1405 56.8935C77.8874 56.6623 77.6682 56.4641 77.7019 56.1168L78.378 49.0419L80.6907 55.092C80.9439 55.8025 81.4335 56.2981 81.8718 56.6278C82.4969 57.0752 82.9186 57.3396 83.6793 57.5221L86.3131 49.1571L87.0049 55.8511C87.0389 56.1821 86.9879 56.4133 86.8354 56.7276C86.7178 56.9767 86.5493 57.1247 86.2622 57.2411H91.4631C91.1918 57.1247 91.0062 56.9767 90.8877 56.7276C90.7362 56.4133 90.7531 56.1821 90.7361 55.8511L89.5538 46.1162C89.5042 45.7699 89.5381 45.5374 89.7063 45.2563C89.8761 44.9587 90.0613 44.8589 90.3644 44.7275L85.6204 44.7275ZM63.4369 44.7275C63.9105 44.8756 64.3152 45.3395 64.3152 45.9016C64.3322 46.0663 64.2995 46.1661 64.2486 46.3307L60.8881 55.8511C60.7365 56.2316 60.5343 56.4299 60.2808 56.7276C60.1114 56.9267 60.0098 57.0751 59.8073 57.2411H64.097C63.809 57.157 63.4043 56.9766 63.2187 56.5625C63.0493 56.182 63.1002 55.8191 63.2344 55.4051L63.9275 53.4219H67.7594L68.4355 55.4217C68.588 55.8358 68.6207 56.1664 68.4185 56.5626C68.216 56.9588 67.8613 57.157 67.5752 57.2411H73.6361C73.3151 56.9588 73.1299 56.7774 72.8765 56.4475C72.6224 56.1168 72.4538 55.901 72.3023 55.5048L68.3179 44.7275H63.4369ZM65.8016 47.9676L67.1525 51.6038H64.4508L65.8016 47.9676ZM48.9874 44.7275L47.9579 47.5215C48.5827 47.141 48.9874 47.008 49.6791 46.7934C50.726 46.4791 52.0938 46.6451 52.4995 46.6617L52.8532 46.6783L47.0793 57.2411H57.4967L58.5435 54.1491L58.0712 54.48C57.8856 54.5951 56.4332 55.3897 54.8801 55.3897C53.1572 55.4051 52.4148 55.2567 52.1444 55.1915L57.8507 44.7275L48.9874 44.7275ZM39.0798 44.7275L36.7661 52.0831L33.8791 44.7275H29.3711C29.6582 44.9587 29.8268 45.1412 29.9623 45.5042C30.1308 45.8684 30.1818 46.1162 30.1308 46.529L29.0501 55.6042C28.9825 56.0669 28.8989 56.3313 28.6287 56.7276C28.4602 56.9434 28.3413 57.0751 28.1042 57.2411H32.1406C31.9031 57.1413 31.7689 57.0585 31.6003 56.8935C31.3472 56.6623 31.1267 56.4641 31.1607 56.1168L31.8365 49.0419L34.1492 55.092C34.4024 55.8025 34.892 56.2981 35.3316 56.6278C35.9567 57.0752 36.3784 57.3396 37.1381 57.5221L39.7729 49.1571L40.4647 55.8511C40.4974 56.1821 40.4477 56.4133 40.2952 56.7276C40.1776 56.9767 40.0081 57.1247 39.7219 57.2411H44.9217C44.6516 57.1247 44.4651 56.9767 44.3475 56.7276C44.1959 56.4133 44.2129 56.1821 44.1959 55.8511L43.0136 46.1162C42.9627 45.7699 42.9979 45.5374 43.1661 45.2563C43.3334 44.9587 43.5198 44.8589 43.8239 44.7275L39.0798 44.7275ZM16.8966 44.7275C17.3702 44.8756 17.7749 45.3395 17.7749 45.9016C17.7906 46.0663 17.758 46.1661 17.707 46.3307L14.3478 55.8511C14.1949 56.2316 13.9927 56.4299 13.7396 56.7276C13.5697 56.9267 13.4692 57.0751 13.2657 57.2411H17.5545C17.2684 57.157 16.8627 56.9766 16.6772 56.5625C16.5077 56.182 16.5586 55.8191 16.6941 55.4051L17.3859 53.4219H21.2191L21.8939 55.4217C22.0464 55.8358 22.0804 56.1664 21.8782 56.5626C21.6747 56.9588 21.3197 57.157 21.0336 57.2411H27.0946C26.7735 56.9588 26.5883 56.7774 26.3339 56.4475C26.0807 56.1168 25.9122 55.901 25.761 55.5048L21.7762 44.7275H16.8966ZM19.26 47.9676L20.6109 51.6038H17.9105L19.26 47.9676ZM2.44613 44.7275L1.41633 47.5215C2.04016 47.141 2.44613 47.008 3.13888 46.7934C4.18572 46.4791 5.55228 46.6451 5.95696 46.6617L6.31296 46.6783L0.538086 57.2411H10.9555L12.002 54.1491L11.5297 54.48C11.3441 54.5951 9.89166 55.3897 8.33737 55.3897C6.61702 55.4051 5.87429 55.2567 5.60326 55.1915L11.3102 44.7275L2.44613 44.7275ZM57.6371 63.7291C57.3602 63.8009 57.1014 63.9085 56.8594 64.0377C56.3022 64.3423 55.869 64.7649 55.5528 65.306C55.2429 65.8471 55.0869 66.449 55.0869 67.1254C55.0869 67.807 55.2474 68.4212 55.5707 68.9567C55.8931 69.4968 56.3474 69.9206 56.9395 70.224C57.5262 70.5226 58.2125 70.6754 58.9889 70.6754C59.5993 70.6754 60.1453 70.5791 60.6278 70.3931C61.1174 70.2017 61.5154 69.9206 61.8374 69.5477L60.9512 68.5508C60.4449 69.052 59.8063 69.2999 59.0297 69.2999C58.4193 69.2999 57.913 69.1536 57.4981 68.855C57.0898 68.5574 56.8368 68.1502 56.7384 67.6432H62.2864C62.3043 67.4353 62.3088 67.2781 62.3088 67.1652C62.3088 66.4559 62.1598 65.8296 61.8545 65.2894C61.5504 64.7539 61.13 64.3311 60.5828 64.0324C60.3421 63.8985 60.089 63.7965 59.8176 63.7291C59.4786 63.6328 59.1213 63.5877 58.7359 63.5877C58.3447 63.5877 57.9819 63.6328 57.6371 63.7291ZM57.3939 65.3449C57.7624 65.035 58.2068 64.8835 58.7358 64.8835C59.2761 64.8835 59.725 65.0416 60.0889 65.3515C60.4507 65.6601 60.6631 66.0664 60.7388 66.5676H56.7271C56.8073 66.0607 57.0267 65.6501 57.3939 65.3449ZM40.3663 63.7291C40.2509 63.7501 40.1481 63.779 40.0385 63.8078C39.5152 63.9537 39.0721 64.1673 38.6978 64.444L39.3477 65.6203C39.6123 65.4079 39.9356 65.2386 40.3211 65.1134C40.7066 64.9961 41.0975 64.933 41.4945 64.933C42.0754 64.933 42.5128 65.0625 42.8066 65.3226C43.1062 65.5817 43.2498 65.9534 43.2498 66.4381V66.54H41.4253C40.4128 66.54 39.671 66.7313 39.193 67.1031C38.7206 67.4804 38.4842 67.9817 38.4842 68.6016C38.4842 69.0021 38.5938 69.3563 38.8133 69.6728C39.0257 69.9871 39.3365 70.2349 39.7332 70.4109C40.1302 70.5846 40.5912 70.6753 41.1203 70.6753C41.6506 70.6753 42.1049 70.5956 42.4788 70.4385C42.8531 70.2747 43.1402 70.0435 43.3472 69.7402V70.5847H44.9069V66.5278C44.9069 65.5419 44.6311 64.8103 44.0783 64.32C43.7676 64.0446 43.3821 63.8476 42.9165 63.7291C42.5592 63.6328 42.1443 63.5876 41.69 63.5876C41.2298 63.5876 40.7867 63.6328 40.3663 63.7291ZM40.4704 69.2377C40.234 69.0642 40.1131 68.8328 40.1131 68.5395C40.1131 67.9253 40.5912 67.6156 41.5464 67.6156H43.2497V68.4212C43.1177 68.7653 42.8928 69.0297 42.5705 69.2158C42.2485 69.4018 41.88 69.4968 41.4659 69.4968C41.0401 69.4968 40.712 69.4127 40.4704 69.2377ZM35.8154 63.7291C35.2108 63.8919 34.7564 64.2071 34.4511 64.6751V63.6672H32.8743V70.5847H34.5315V67.227C34.5315 66.54 34.71 66.0099 35.0727 65.6435C35.4344 65.2717 35.9365 65.0923 36.5796 65.0923C36.6949 65.0923 36.8224 65.1024 36.965 65.1312V63.5876C36.5344 63.5876 36.1534 63.6328 35.8154 63.7291ZM52.5831 63.6672L52.555 63.7291L50.3226 68.7986L48.1534 63.7291L48.1239 63.6672H46.4036L46.4318 63.7291L49.4364 70.5847H51.1398L54.1433 63.7291L54.1725 63.6672H52.5831ZM64.5594 70.5847H66.2166V63.7281H64.5594V70.5847ZM25.6636 63.729V65.0139H26.8258V68.3424C26.8258 69.1028 27.0382 69.6838 27.4644 70.0778C27.8848 70.4783 28.4827 70.6753 29.2606 70.6753C29.5702 70.6753 29.864 70.6355 30.1398 70.5571C30.4225 70.4827 30.6576 70.3645 30.8486 70.2073L30.3875 69.0573C30.1398 69.2446 29.8303 69.3396 29.4615 69.3396C29.1453 69.3396 28.8976 69.249 28.7303 69.0752C28.563 68.9002 28.4826 68.6401 28.4826 68.3026V65.0139H30.3759V63.7291L28.437 63.729L26.7643 63.729L25.6636 63.729Z" fill="white"/>
<path d="M26.7643 61.8908V63.729L28.437 63.729V61.8908H26.7643Z" fill="white"/>
</svg>
