<svg width="210" height="164" viewBox="0 0 210 164" fill="none" xmlns="http://www.w3.org/2000/svg">
<path fill-rule="evenodd" clip-rule="evenodd" d="M138.06 0.957797H98.8605C79.5755 0.957797 63.9445 16.2803 63.9445 35.1789V35.5235L70.2293 35.6689C71.5185 27.8803 75.5979 20.9898 81.4715 15.9612C81.4847 15.9352 81.4847 15.9352 81.4973 15.9352C81.6302 15.818 81.7786 15.6877 81.9249 15.5704C81.9898 15.5038 82.0704 15.4401 82.1383 15.3888C82.2032 15.3353 82.2682 15.2846 82.3362 15.2462C88.4239 10.3341 96.2904 7.39102 104.862 7.39102C109.194 7.39102 113.343 8.14648 117.167 9.512L115.216 10.9469L115.336 10.9722L70.6673 43.6672C70.4272 43.8482 70.2035 44.0298 69.9739 44.2136C66.161 47.3759 63.9445 52.0405 63.9445 56.9649V70.4182C63.9445 70.4182 66.1765 64.4525 70.586 58.9304C71.4535 57.8478 72.3941 56.7812 73.4309 55.7934C74.2171 55.0221 75.0375 54.307 75.9154 53.6433C80.2112 50.4246 110.814 27.6167 127.414 15.2561C133.767 10.5156 138.06 7.31199 138.06 7.31199V0.957797ZM144.772 13.7606V13.7729C143.376 16.742 140.544 21.9653 136.294 26.0705C135.509 26.8361 134.684 27.5533 133.809 28.2168C129.516 31.4334 98.9078 54.2413 82.3073 66.6019C75.9546 71.3324 71.6618 74.5338 71.6618 74.5338V80.9055H110.863C130.149 80.9055 145.783 65.5837 145.783 46.6792V46.3377L139.482 46.2299C136.825 62.2391 122.34 74.4701 104.862 74.4701C100.611 74.4701 96.5295 73.7421 92.7549 72.4122L118.828 53.2761L119.162 53.0308L139.057 38.1968C139.294 38.013 139.524 37.8314 139.747 37.6504C141.979 35.7994 143.667 33.4279 144.678 30.7982V30.7829C145.394 28.9196 145.783 26.9281 145.783 24.8982V11.4399C145.783 11.4399 145.449 12.3409 144.772 13.7606ZM196.299 103.182L190.97 120.151L184.317 103.182H173.927C174.589 103.715 174.979 104.137 175.289 104.974C175.677 105.814 175.795 106.386 175.677 107.338L173.19 128.274C173.033 129.341 172.838 129.951 172.216 130.865C171.827 131.363 171.554 131.667 171.012 132.05H180.309C179.764 131.82 179.452 131.628 179.063 131.248C178.48 130.715 177.975 130.257 178.052 129.456L179.61 113.135L184.94 127.092C185.523 128.731 186.651 129.874 187.661 130.635C189.102 131.667 190.074 132.277 191.826 132.698L197.896 113.401L199.49 128.843C199.568 129.607 199.451 130.14 199.099 130.865C198.828 131.44 198.44 131.781 197.778 132.05H209.763C209.138 131.781 208.71 131.44 208.437 130.865C208.088 130.14 208.127 129.607 208.088 128.843L205.363 106.386C205.249 105.587 205.327 105.051 205.715 104.402C206.106 103.715 206.533 103.485 207.231 103.182L196.299 103.182ZM145.181 103.182C146.272 103.524 147.205 104.594 147.205 105.891C147.244 106.271 147.169 106.501 147.051 106.881L139.308 128.843C138.958 129.721 138.492 130.178 137.908 130.865C137.518 131.325 137.284 131.667 136.817 132.05H146.702C146.038 131.856 145.106 131.44 144.678 130.484C144.288 129.607 144.405 128.769 144.714 127.814L146.311 123.239H155.141L156.699 127.853C157.051 128.808 157.126 129.571 156.66 130.484C156.194 131.399 155.376 131.856 154.717 132.05H168.684C167.944 131.399 167.517 130.98 166.933 130.219C166.348 129.456 165.959 128.958 165.61 128.044L156.428 103.182H145.181ZM150.63 110.657L153.743 119.045H147.517L150.63 110.657ZM111.884 103.182L109.512 109.628C110.952 108.75 111.884 108.443 113.478 107.948C115.891 107.223 119.043 107.606 119.977 107.644L120.792 107.682L107.487 132.05H131.493L133.905 124.917L132.816 125.68C132.389 125.946 129.042 127.779 125.463 127.779C121.493 127.814 119.782 127.472 119.159 127.321L132.308 103.182L111.884 103.182ZM89.0537 103.182L83.7221 120.151L77.0694 103.182H66.6816C67.3431 103.715 67.7316 104.137 68.0439 104.974C68.4323 105.814 68.5496 106.386 68.4323 107.338L65.9418 128.274C65.786 129.341 65.5933 129.951 64.9708 130.865C64.5825 131.363 64.3086 131.667 63.7622 132.05H73.0633C72.5162 131.82 72.2068 131.628 71.8184 131.248C71.2351 130.715 70.7271 130.257 70.8054 129.456L72.3626 113.135L77.692 127.092C78.2753 128.731 79.4035 129.874 80.4165 130.635C81.857 131.667 82.8287 132.277 84.5794 132.698L90.6508 113.401L92.245 128.843C92.3203 129.607 92.2058 130.14 91.8544 130.865C91.5834 131.44 91.1929 131.781 90.5335 132.05H102.515C101.893 131.781 101.463 131.44 101.192 130.865C100.843 130.14 100.882 129.607 100.843 128.843L98.1186 106.386C98.0012 105.587 98.0825 105.051 98.47 104.402C98.8555 103.715 99.2851 103.485 99.9858 103.182L89.0537 103.182ZM37.936 103.182C39.0273 103.524 39.9599 104.594 39.9599 105.891C39.996 106.271 39.9208 106.501 39.8033 106.881L32.0625 128.843C31.7103 129.721 31.2444 130.178 30.6611 130.865C30.2697 131.325 30.0379 131.667 29.569 132.05H39.4519C38.7926 131.856 37.8578 131.44 37.4303 130.484C37.0397 129.607 37.1571 128.769 37.4694 127.814L39.0635 123.239H47.8964L49.4514 127.853C49.8028 128.808 49.8811 129.571 49.4152 130.484C48.9464 131.399 48.1282 131.856 47.4689 132.05H61.4357C60.6958 131.399 60.2691 130.98 59.6827 130.219C59.0994 129.456 58.7111 128.958 58.3625 128.044L49.1803 103.182H37.936ZM43.3821 110.657L46.495 119.045H40.2722L43.3821 110.657ZM4.63703 103.182L2.26402 109.628C3.70152 108.75 4.63703 108.443 6.23338 107.948C8.64566 107.223 11.7947 107.606 12.7272 107.644L13.5475 107.682L0.240234 132.05H24.2456L26.6571 124.917L25.5687 125.68C25.1411 125.946 21.7941 127.779 18.2125 127.779C14.2482 127.814 12.5367 127.472 11.9121 127.321L25.0629 103.182L4.63703 103.182ZM131.816 147.017C131.178 147.183 130.582 147.431 130.024 147.729C128.74 148.432 127.742 149.406 127.013 150.655C126.299 151.903 125.94 153.292 125.94 154.852C125.94 156.424 126.31 157.841 127.055 159.076C127.797 160.323 128.844 161.3 130.209 162C131.561 162.689 133.142 163.041 134.931 163.041C136.338 163.041 137.596 162.819 138.708 162.39C139.836 161.949 140.753 161.3 141.495 160.44L139.453 158.14C138.286 159.296 136.815 159.868 135.025 159.868C133.619 159.868 132.452 159.531 131.496 158.842C130.555 158.155 129.972 157.216 129.745 156.047H142.53C142.571 155.567 142.582 155.204 142.582 154.944C142.582 153.307 142.238 151.863 141.535 150.616C140.834 149.381 139.865 148.406 138.604 147.717C138.05 147.408 137.466 147.173 136.841 147.017C136.06 146.795 135.236 146.691 134.348 146.691C133.447 146.691 132.611 146.795 131.816 147.017ZM131.256 150.744C132.105 150.03 133.129 149.68 134.348 149.68C135.593 149.68 136.627 150.045 137.466 150.76C138.3 151.472 138.789 152.409 138.964 153.565H129.719C129.904 152.396 130.41 151.449 131.256 150.744ZM92.0183 147.017C91.7525 147.065 91.5155 147.132 91.2629 147.199C90.0572 147.535 89.0361 148.028 88.1736 148.666L89.671 151.38C90.2809 150.89 91.0259 150.499 91.9142 150.21C92.8024 149.94 93.7031 149.794 94.618 149.794C95.9567 149.794 96.9645 150.093 97.6416 150.693C98.332 151.291 98.6628 152.148 98.6628 153.266V153.501H94.4586C92.1254 153.501 90.4161 153.943 89.3145 154.8C88.2261 155.671 87.6813 156.827 87.6813 158.257C87.6813 159.181 87.9338 159.998 88.4395 160.729C88.9291 161.454 89.6453 162.025 90.5594 162.431C91.4742 162.832 92.5366 163.041 93.7557 163.041C94.9777 163.041 96.0246 162.857 96.8863 162.495C97.7488 162.117 98.4103 161.584 98.8873 160.884V162.832H102.481V153.473C102.481 151.199 101.846 149.511 100.572 148.38C99.856 147.745 98.9677 147.29 97.8949 147.017C97.0715 146.795 96.1154 146.691 95.0685 146.691C94.0081 146.691 92.987 146.795 92.0183 147.017ZM92.2582 159.725C91.7133 159.325 91.4349 158.791 91.4349 158.114C91.4349 156.697 92.5365 155.983 94.7376 155.983H98.6627V157.841C98.3586 158.635 97.8401 159.245 97.0975 159.674C96.3554 160.103 95.5063 160.323 94.5523 160.323C93.571 160.323 92.8149 160.129 92.2582 159.725ZM81.5314 147.017C80.1382 147.393 79.0912 148.12 78.3876 149.199V146.874H74.7541V162.832H78.5729V155.086C78.5729 153.501 78.9842 152.279 79.8199 151.433C80.6535 150.576 81.8105 150.162 83.2924 150.162C83.5582 150.162 83.852 150.185 84.1806 150.252V146.69C83.1882 146.69 82.3104 146.795 81.5314 147.017ZM120.17 146.874L120.105 147.017L114.961 158.712L109.963 147.017L109.895 146.874H105.93L105.995 147.017L112.919 162.832H116.844L123.765 147.017L123.833 146.874H120.17ZM147.768 162.832H151.586V147.015H147.768V162.832ZM58.1382 147.017V149.981H60.8162V157.66C60.8162 159.414 61.3057 160.754 62.2878 161.663C63.2565 162.587 64.6343 163.041 66.427 163.041C67.1402 163.041 67.8173 162.949 68.453 162.769C69.1042 162.597 69.6462 162.324 70.0863 161.962L69.0237 159.309C68.4529 159.741 67.7397 159.96 66.8898 159.96C66.1612 159.96 65.5903 159.751 65.2049 159.35C64.8194 158.946 64.6341 158.346 64.6341 157.568V149.981H68.997V147.017L64.5291 147.017L60.6745 147.017L58.1382 147.017Z" fill="#125D98"/>
<path d="M60.6745 142.776V147.017L64.5291 147.017V142.776H60.6745Z" fill="#125D98"/>
</svg>
